<svg width="7223" height="7921" viewBox="0 0 7223 7921" fill="none" xmlns="http://www.w3.org/2000/svg">
<g clip-path="url(#clip0)">
<rect width="7223" height="7921" fill="#FEFCE8"/>
<path d="M2101.16 6536.57C1550.38 6516.74 922.716 6328.23 381.888 6493.46C34.9413 6599.45 -35.7836 6776.2 14.5006 7156.24C59.2317 7494.25 220.952 7668.02 512.028 7789.23C1077.21 8024.56 1671.53 7880.73 2255.93 7841.31C2867.41 7800.04 3483.12 7851.57 4095.66 7856.75C4687.35 7861.75 5279.42 7838.33 5870.83 7823.51C6171.82 7815.97 6472.74 7804.71 6773.7 7797.14C6877.16 7794.56 7178.87 7850.79 7182.31 7724.39C7186.33 7577.92 7201.8 7431.44 7213.07 7285.36C7237.16 6972.91 7234.71 6748.69 6994.7 6548.74C6785.42 6374.38 6488.93 6264.42 6223.16 6260.49C5603.71 6251.37 5011.95 6407.85 4425.95 6614.6C4036.99 6751.82 3638.3 6899.32 3227.54 6931.54C2992.24 6950 2816.58 6943.42 2617.93 6797.23C2455.33 6677.6 2308.46 6542.97 2101.16 6536.57Z" fill="#F5F3FF"/>
<path d="M2148.81 1564.49C2233.5 1579.78 2319.15 1661.02 2319.15 1759.4C2319.15 1818.68 2548.19 1713.24 2574.66 1706.07C2678.02 1678.16 2787.45 1634.36 2894.9 1634.36C3013.28 1634.36 2986.88 1540.07 2986.88 1448.64C2986.88 1347.43 3071.16 1364.83 2990.29 1277.63C2905.42 1186.13 2769.12 1184.52 2656.42 1185.69C2514.6 1187.2 2376.08 1203.05 2257.83 1292.34C2191.05 1342.73 2023.85 1492.22 2148.81 1564.49Z" fill="#FFFF40"/>
<path d="M67.3433 6470.36C183.276 6592.2 464.745 6561.97 616.585 6575.32C869.301 6597.5 1122.77 6607.21 1375.55 6628.5C1950.17 6676.9 2523.87 6672.78 3099.38 6646.89C4273.57 6594 5452.21 6529.13 6627.62 6573.7C6728.39 6577.53 7101.64 6676.31 7131.28 6485.11C7153.87 6339.66 7044.95 6312.96 6936.07 6310.94C6319.24 6299.24 5702.51 6291.48 5085.61 6297.22C4514.26 6302.59 3941.27 6334.58 3373.42 6403.83C2752.78 6479.59 2122.11 6449.44 1498.74 6426.45C1129.55 6412.81 760.454 6399.09 390.988 6396.81C289.159 6396.18 127.541 6356.14 40.089 6418.88C24.3497 6430.17 22.4419 6532.37 67.3433 6470.36Z" fill="black"/>
<path d="M1842.24 7014.66C1813.8 7104.83 1751.21 7211.96 1784.36 7308.86C1822.79 7421.33 2014.42 7522.68 2098.5 7583.88C2319.13 7744.37 2628.97 7831.49 2890.68 7862.42C3456.86 7929.28 4082.51 7928.95 4642.66 7801.66C4874.25 7749.04 5166.55 7624.73 5267.8 7369.55C5315.16 7250.21 5280.88 7087.66 5177.52 7022.05C5028.61 6927.53 4777.56 6963.32 4610.19 6947.25C4333.8 6920.73 4056.59 6892.89 3779.51 6876.27C3459.58 6857.11 3139.38 6840.52 2818.87 6852.07C2502.31 6863.43 2109.47 6819.93 1842.24 7014.66Z" fill="#B2B2B2"/>
<path d="M1920.58 1902.79C2354.71 1810.41 2781.1 1670.88 3211.72 1560.77C3204.53 2111.12 3373.74 2639.71 3502.25 3169.5C3549.77 3365.41 3585.44 3652.19 3722.73 3800.47C3869.46 3958.97 4073.74 3894.14 4261.01 3918.15C4886.42 3998.29 5169.05 4688.09 5266.01 5278.86C5302.46 5501.06 5197.91 5474.84 5013.53 5550.67C4886.87 5602.71 4730.67 5620 4595.14 5633.16C4269.18 5664.83 3947.72 5664.02 3620.74 5654.31C2986.6 5635.44 2386.52 5633.57 1767.27 5797.44C1697.4 5540.08 1879.19 5226.46 1985.27 4999.4C2114.8 4722.22 2591.03 4421.43 2566.13 4107.58C2532.06 3678.04 2441.2 3224.55 2318.01 2814.54C2260.1 2621.72 2150.6 1947.58 1920.58 1902.79Z" fill="#FFFFA1"/>
<path d="M1821.8 5264.15C2281.17 4884.88 3036.19 4949.24 3585.02 4958.76C3876.03 4963.84 4182.81 5005.32 4468.88 5061.88C4634.51 5094.65 5249.03 5183.91 5300.75 5367.23C5372.97 5623.31 5252.44 5954.73 5157.05 6190.91C5039.92 6481.03 4804.24 6619.86 4545.09 6736.44C3998.64 6982.29 3470.65 7077.28 2882.13 6973.54C2525.34 6910.69 2233.82 6784.4 2046.99 6431.57C1904.08 6161.63 1681.38 5566.12 1821.8 5264.15Z" fill="#FBBF24"/>
<path d="M3896.57 4973.6C3311.79 4962.34 2720.95 4901.26 2143.74 5032.47C2032.72 5057.7 1746.72 5258.09 1969.14 5346.28C2250.92 5457.97 2538.11 5532.37 2835.87 5574.77C3414.71 5657.23 4012.88 5672.93 4595.33 5629.94C4760.26 5617.76 5124.37 5619.16 5157.05 5389.16C5190.77 5151.59 4834.35 5068.11 4671.51 5039.94C4415.08 4995.62 4155.62 4973.6 3896.57 4973.6Z" fill="#EF4444"/>
<path d="M2704.16 2141.83C2650.47 2245.91 2563.7 2376.35 2574.67 2502.24C2586.83 2641.62 2703.14 2705.53 2760.34 2816.67C2821.66 2935.79 2727.63 3080.32 2727.97 3208.3C2728.35 3351.83 2778.63 3464.44 2882.98 3552.15C2981.98 3635.34 3066 3673.07 3044.81 3807.75C3029.3 3906.27 2956.84 3983.39 2947.68 4092.76C2936.09 4230.89 3104.42 4274.4 3153.79 4381.49L3140.2 4315.29C3141.9 4441.73 3001.98 4659.29 3187.86 4727.18C3348.38 4785.8 3295.92 4629.21 3303.69 4550.66C3313.36 4452.91 3376.97 4367.85 3344.57 4267.48C3309.96 4160.24 3200.6 4108.06 3129.94 4039.47L3150.38 4101.99C3153.75 4074.74 3164.72 4048.41 3167.42 4021.08C3166.02 4023.4 3153.21 4046.17 3153.79 4046.83C3232.55 3884.39 3326.68 3718.6 3189.56 3554.03C3063.68 3402.95 2860.94 3360.51 2922.13 3129.27C2962.05 2978.3 2958.14 2822.15 2877.84 2686.12C2811.92 2574.46 2688.18 2533.31 2680.25 2391.91C2676.67 2327.22 2798.29 2116.23 2704.16 2141.83Z" fill="#DDD6FE"/>
<path d="M3235.65 292.005C3311.79 106.286 2732.16 55.793 2629.38 59.3603C2407.7 67.0832 2125 122.541 1981.34 324.148C1848.92 509.94 1824.19 602.505 1631.05 724.123C1458.09 833.054 1584.86 861.997 1559.51 1009.14C1547.83 1077.1 1416.97 1138.59 1515.22 1244.5C1576.99 1311.11 1635.18 1472.88 1709.41 1512.97C1894.98 1613.15 2054.65 1560.52 2254.5 1579.17C2096.9 1214.05 2493.41 1216.33 2710.97 1204.05C2752.94 1201.7 2901.17 1157.23 2925.63 1215.08C2943.48 1257.34 2839.34 1317.28 2864.28 1358.51C2922.43 1454.57 3323.41 1274 3348.07 1154.4C3377.58 1011.2 3578.37 909.291 3518.41 770.093C3377 841.292 3378.4 610.817 3353.19 520.017C3321.64 406.636 3135.32 444.221 3235.65 292.005Z" fill="#B3B3B3"/>
<path d="M1685.53 1347.51C1740.69 1300.51 1812.3 1276.53 1866.09 1224.27C1924.55 1167.49 1924.62 1029.21 1998.96 1009.13C2141.06 970.738 2258.9 1090.26 2322.6 884.094C2388.39 671.235 2489.3 795.648 2615.59 843.641C2749.34 894.465 2989.55 814.073 2881.32 622.985C3030.98 584.076 3020.01 581.575 3072.13 722.28C3149.77 931.94 3164.39 819.479 3354.89 799.509C3452.12 789.322 3486.5 780.423 3484.35 913.515C3483.64 958.382 3417.72 954.116 3412.81 976.034C3384.67 1101.62 3443.4 1176.06 3298.89 1250.35C3205.44 1298.38 3102.59 1316.1 3007.4 1358.5C2838.39 1433.79 2885.51 1374.28 2734.86 1314.37C2651.56 1281.24 2261.35 1208.46 2210.25 1340.12C2153.15 1487.18 2372.68 1488.62 2108.04 1582.84C1913.96 1651.94 1622.2 1647.53 1685.53 1347.51Z" fill="#7C78BF"/>
<path d="M1797.95 5190.6C2003.28 4914.04 2185.54 4620.68 2390.73 4344.75C2514.88 4177.86 2527.72 4140.94 2475.9 3925.51C2430.46 3736.4 2365.22 3559.29 2327.71 3368.35C2255.28 2999.89 2174.98 2595.1 2026.21 2259.55C1960.18 2110.65 1852.02 1997.3 1757.07 1906.5C1873.21 1859.02 1975.82 1859.1 2094.34 1829.27C2266.73 1785.84 2432.84 1690.22 2605.36 1638.04C2758.12 1591.85 3163.29 1412.67 3331.01 1501.97C3433.14 1556.32 3280.07 1602.18 3211.77 1619.65C3081.97 1652.82 2947.61 1676.25 2810.55 1713.21C2541.48 1785.8 2305.39 1917.06 2033.05 1965.31C2304.41 2167.61 2341.27 2675.64 2462.31 3002.39C2558.69 3262.54 2585.64 3574.29 2643.86 3850.81C2681.2 4028.11 2661.4 4205.89 2564.48 4352.07C2431.34 4552.94 2261.04 4694.79 2131.82 4900C1968.8 5158.86 1941.65 5337.23 1918.86 5644.67C1898.08 5924.94 1921.86 6113.79 2094.34 6326.9C2146.43 6391.26 2352.1 6595 2312.38 6690.99C2236.61 6874.13 1849.39 6267.81 1801.7 6177.74C1616.88 5828.7 1761.87 5553.21 1797.95 5190.6Z" fill="black"/>
<path d="M2448.69 6823.41C2700.86 6796.79 2947.17 6947.31 3206.36 6940.54C3511.44 6932.53 3811.54 6877.11 4102.69 6777.44C4646.58 6591.28 5200.7 6340.69 5194.56 5646.58C5193.2 5491.86 5166.05 5359.03 5134.23 5207.84C5101.59 5052.83 5120.7 4858.8 5075.33 4712.47C4995.06 4453.64 4672.85 4190.25 4462.1 4065.21C4233.07 3929.33 4013.67 4039.69 3782.48 3905.24C3578.69 3786.71 3836.52 3840.14 3917.02 3859.27C4025.22 3884.97 4097.44 3875.67 4210.17 3856.8C4359.97 3831.72 4483.4 3910.2 4615.41 3984.31C4839.95 4110.34 4991.42 4256.19 5160.49 4456.88C5343.98 4674.66 5270.81 4903.56 5310.39 5168.49C5328.99 5292.98 5374.61 5409.01 5385.31 5536.25C5399.58 5705.31 5360.27 5840.54 5349.54 6003.31C5328.38 6324.55 4907.27 6612.21 4659.66 6738.83C4250.78 6948.01 3773.9 6972.32 3334.42 7051.46C3104.09 7092.91 2585.61 7056.76 2448.69 6823.41Z" fill="black"/>
<path d="M1430.06 931.907C1379.06 827.573 1489 733.758 1562.93 681.83C1671.54 605.557 1746.08 513.065 1866.1 448.302C1939.96 408.437 2072.62 286.635 2022.84 457.496C2012.05 494.53 1946.87 527.849 1924.05 558.63C1887.73 607.579 1926.23 656.491 1872.95 703.896C1779.4 787.083 1682.4 681.977 1627.66 825.257C1624.32 834.009 1680.05 872.698 1665.17 917.197C1656.75 942.388 1585.96 968.83 1566.37 1001.78C1537.89 1049.66 1532.27 1269.33 1436.91 1185.66C1344.21 1104.35 1568.28 986.262 1430.06 931.907Z" fill="black"/>
<path d="M1535.58 1314.37C1743.94 1289.8 1641.29 1474.49 1787.68 1553.41C1848.22 1586.07 2268.21 1508.62 2244.19 1593.87C2229.44 1646.27 1840.18 1683.09 1784.28 1671.1C1519.81 1614.43 1658.98 1463.13 1535.58 1314.37Z" fill="black"/>
<path d="M2135.23 1369.53C2225.95 1368.83 2272.05 1293.7 2346.45 1251.85C2376.47 1234.97 2427.7 1203.01 2462.25 1204.04C2507.8 1205.4 2535.6 1253.98 2561.04 1255.53C2612.56 1258.62 2997.18 1061.61 2959.64 1178.3C2923.97 1289.18 2598.38 1365.89 2513.32 1319.89C2398.71 1257.92 2429.78 1331.76 2322.54 1387.92C2257.84 1421.83 2173.86 1441.8 2135.23 1369.53Z" fill="black"/>
<path d="M2360.08 1413.67C2419.91 1448.13 2518.67 1578.17 2428.22 1638C2359.67 1683.35 2259.07 1481.19 2176.15 1465.15C2235.63 1443.53 2302.54 1418.85 2360.08 1413.67Z" fill="black"/>
<path d="M2305.58 144.905C2353.92 77.8992 2422.43 29.2077 2499.76 12.5114C2582.07 -5.28816 2622.07 46.7499 2687.14 45.6098C2740.52 44.6904 2793.05 -9.62772 2847.22 1.47863C2923.67 17.182 2950.96 109.563 3000.53 126.517C3072.68 151.194 3155.02 94.1174 3235.6 137.55C3352.89 200.805 3234.68 284.139 3273.07 358.206C3317.73 444.409 3395.14 365.34 3446.85 468.534C3476.73 528.185 3453.19 611.409 3436.63 670.802C3851.54 669.073 3458.4 1190.3 3276.51 1093.73C3321.86 1049.82 3399.77 987.076 3423 924.556C3463.2 816.361 3439.53 834.271 3382.12 788.485C3337.53 752.923 3313.58 828.019 3273.1 751.709C3233.48 677.091 3268.33 752.886 3286.73 700.223C3305.57 646.272 3372.96 641.896 3368.49 556.796C3364.47 480.265 3314.91 411.237 3240.74 459.34C3094.11 554.406 3174.68 365.267 3164.09 288.331C3137.04 91.6166 3021.31 198.782 2901.73 150.421C2852.64 130.562 2823.92 70.3601 2770.57 62.159C2691.6 50.023 2693.2 152.738 2653.03 152.26C2575.7 151.341 2516.93 -6.42821 2407.75 100.774C2366.93 140.823 2408.7 208.564 2387.27 225.812C2348.71 256.888 2236.62 228.901 2182.86 240.523C2106.59 256.998 2050.78 315.068 1971.68 317.752C2069.49 229.38 2185.73 153.216 2305.58 144.905Z" fill="black"/>
<path d="M3433.38 4057.86C3431.5 4152.04 2916.05 4253.36 2809.93 4234.38C2979.35 4091.18 3223.82 4052.93 3433.38 4057.86Z" fill="black"/>
<path d="M2646.23 1362.22C2658.25 1428.68 2695.97 1655.99 2564.47 1520.36C2510.4 1464.61 2549.17 1337.95 2646.23 1362.22Z" fill="black"/>
<path d="M2782.52 1292.35C2809.36 1281.42 2855.42 1276.02 2888.13 1251.89C2864.82 1327.61 2879.23 1530.69 2813.18 1538.75C2670.94 1556.03 2757.17 1338.43 2782.52 1292.35Z" fill="black"/>
<path d="M3191.36 1218.79C3272.55 1239.6 3366.54 1174.36 3416.21 1097.43C3440.74 1173.96 3390.49 1255.45 3325.93 1294.18C3287.37 1317.31 3106.57 1413.3 3072.13 1410.02C2887.48 1392.33 3148.17 1270.57 3191.36 1218.79Z" fill="black"/>
<path d="M3194.73 1660.11C3306.07 1741.72 3222.6 1992.86 3266.31 2123.49C3327.39 2306.01 3440.33 2452.49 3480.94 2649.38C3526.18 2868.79 3515.89 3065.54 3596.73 3278.25C3633.97 3376.22 3805.23 3746.41 3647.84 3818.86C3482.98 3894.73 3389.19 2857.76 3365.07 2711.9C3307.36 2362.64 3025.28 2015.55 3194.73 1660.11Z" fill="black"/>
<path d="M2745.04 5771.62C2625.7 5819.65 2456.52 5770.74 2404.36 5926.08C2367.74 6035.2 2456.42 6269.94 2554.26 6312.23C3030.87 6518.25 2917.93 5648.31 2683.72 5767.95L2745.04 5771.62Z" fill="#EF4444"/>
<path d="M3593.48 5826.79C3368.33 5794.72 3276.79 6184.15 3491.28 6257.07C3717.15 6333.9 3798.77 5904.87 3593.48 5826.79Z" fill="#EF4444"/>
<path d="M4363.27 5889.35C4242.3 5915.61 4060.72 5902.63 4046.44 6087.9C4036.63 6215.26 4133.62 6266.93 4247.44 6240.52C4385.32 6208.57 4390.53 6007.4 4363.27 5889.35Z" fill="#EF4444"/>
<path d="M4642.8 5970.22C4454.47 6049.73 4495.8 6290.24 4704.12 6253.35C4958.88 6208.27 4894.29 5893.39 4642.8 5970.22Z" fill="#EF4444"/>
<path d="M4036.37 6378.44C3866.55 6459.97 3886.65 6717.26 4084.07 6632.19C4215.57 6575.59 4181.26 6346.15 4036.37 6378.44Z" fill="#EF4444"/>
<path d="M3010.76 6477.73C2840.25 6529.21 2908.83 6744.32 3075.46 6709.42C3303.37 6661.68 3220.99 6440.88 3010.76 6477.73Z" fill="#EF4444"/>
<path d="M2973.29 5653.94C2873.71 5727.64 2950.26 6008.83 3072.08 5986.77C3233.56 5957.53 3122.3 5649.64 2973.29 5653.94Z" fill="#EF4444"/>
<path d="M3637.61 6474.05C3484.71 6485.49 3305.96 6696.03 3518.37 6760.94C3746.19 6830.52 3871.45 6512.19 3637.61 6474.05Z" fill="#EF4444"/>
<path d="M4683.67 4535.95C4533.53 4548.97 4350.32 4756.05 4561.03 4822.8C4786.25 4894.11 4919.45 4577.32 4683.67 4535.95Z" fill="#EF4444"/>
<path d="M3344.65 4348.4C3167.02 4379.96 3143.45 4657.54 3341.21 4649.97C3530.36 4642.72 3447.27 4423.46 3419.6 4311.63C3396.2 4323.1 3364.38 4331.04 3344.65 4348.4Z" fill="#EF4444"/>
<path d="M4046.39 4730.9C4191.79 4709.24 4334.87 4700.34 4313.85 4497.33C4304.55 4407.64 4191.58 4323.68 4111.15 4341.04C4008.03 4363.32 4051.4 4650.36 4046.39 4730.9Z" fill="#EF4444"/>
<path d="M3848.88 4425.65C3714.35 4449.89 3471.04 4625.57 3710.87 4736.37C3759.9 4759.07 3905.33 4758.59 3940.87 4710.67C3992.92 4640.5 3882.54 4484.64 3848.88 4425.65Z" fill="#EF4444"/>
<path d="M2789.34 4410.91C2596.96 4501.2 2661.42 4801.95 2872.81 4769.48C3104.37 4733.95 2873.01 4464.31 2789.34 4410.91Z" fill="#EF4444"/>
<path d="M3208.38 3344.41C3073.54 3308.92 2909.71 3454.3 3048.26 3583.45C3132.79 3662.26 3216.05 3579.19 3317.4 3568.74C3292.97 3480.92 3314.33 3371.55 3208.38 3344.41Z" fill="#EF4444"/>
<path d="M2806.36 3006.07C2581.55 2958.37 2556.17 3243.35 2772.3 3256.15C2938.34 3266 2954.12 3059.39 2806.36 3006.07Z" fill="#EF4444"/>
<path d="M2901.78 2219.07C2802.71 2225.36 2848.19 2449.73 2976.72 2395.59C3111.5 2338.89 3060.36 2123.6 2901.78 2219.07Z" fill="#EF4444"/>
<path d="M2510.01 2127.13C2310.75 2169.27 2327.89 2381.25 2527.05 2391.91C2774.45 2405.19 2658 2092.34 2510.01 2127.13Z" fill="#EF4444"/>
<path d="M2400.97 409.723C2456.13 436.533 2540.62 438.261 2598.57 442.821C2636.86 445.837 2717.94 538.439 2704.21 417.078C2688.23 276.152 2469.01 295.607 2397.6 354.559C2348.3 395.233 2378.59 431.752 2400.97 409.723Z" fill="#E6E6E6"/>
<path d="M2216.98 494.265C2255.27 440.866 2354.79 446.015 2370.29 372.904C2391.51 272.837 2294.08 261.215 2230.61 277.286C2035.74 326.677 2122.24 618.273 2230.61 490.587C2252.07 461.939 2221.55 498.568 2216.98 494.265Z" fill="#E6E6E6"/>
<path d="M2159.1 615.637C2155.9 581.288 2110.76 593.572 2145.48 560.473C1978.37 489.863 1780.2 833.241 2108 659.768L2070.49 645.058C2125.04 684.776 2175.93 664.182 2162.48 597.249C2154.03 599.971 2157.16 615.6 2159.1 615.637Z" fill="#E6E6E6"/>
<path d="M2714.37 247.875C2777.46 291.602 3089.7 542.856 3031.2 336.138C2998.9 222.169 2688.62 155.788 2714.37 247.875Z" fill="#E6E6E6"/>
<path d="M1883.08 2737.6C1875.38 2940.46 1959.59 3126.11 2014.27 3314.99C2050.21 3439.18 2167.37 3457.13 2210.16 3329.7C2266.24 3162.66 2052.46 2911.89 1968.28 2798.29C1928.04 2744 1896.57 2684.68 1883.08 2737.6Z" fill="#EF4444"/>
<path d="M1644.64 3046.52C1660.14 3190.65 1678.13 3330.91 1743.44 3460.25C1802.17 3576.57 1898.89 3493.42 1886.52 3392.18C1878.31 3324.62 1680.89 2970.51 1644.64 3046.52Z" fill="#EF4444"/>
<path d="M3719.52 2756C3731.82 2819.48 3757.5 3328.27 3866.01 3079.63C3906.11 2987.65 3758.22 2663.21 3719.52 2756Z" fill="#EF4444"/>
<path d="M4203.19 2991.36C4181.62 3046.15 4100.75 3164.54 4100.98 3219.37C4101.56 3350.73 4235.86 3388.21 4288.36 3263.5C4314.69 3200.94 4270.37 2921.26 4203.19 2991.36Z" fill="#EF4444"/>
<path d="M4918.74 3782.04C5061.21 3826.68 5147.64 3891.48 5255.98 3995.34C5313.76 4050.72 5429.48 4194.48 5514.93 4116.7C5795.07 3861.66 4845.42 3644.97 4918.74 3782.04Z" fill="#EF4444"/>
<path d="M1964.93 4466.08C1851.04 4555.63 1525.83 4758 1566.33 4955.2C1604.22 5139.63 1711.53 4982.01 1757.11 4900.03C1793.29 4834.98 2079.6 4467 1964.93 4466.08Z" fill="#EF4444"/>
<path d="M2492.96 7227.96C2694.54 7429.42 2958.29 7528.53 3232.23 7514.85C3322 7510.37 3855.88 7405.77 3603.54 7209.57C3437.18 7080.2 2981.12 7203.29 2777.46 7172.95C2757.02 7169.89 2320.78 7055.85 2492.96 7227.96Z" fill="black"/>
<path d="M1828.64 5260.44C1849.45 5491.1 2418.93 5580.25 2603.51 5614.19C3072.76 5700.4 3553.6 5779.02 4030.24 5758.02C4284.45 5746.81 4533.11 5721.17 4782.35 5665.13C4878.97 5643.43 5111.08 5609.56 5167.29 5517.88C5256.85 5371.77 5157.99 5208.22 5075.3 5477.42L5109.37 5444.32C4857.75 5571.35 4521.97 5550.39 4251.41 5537.37C3965.82 5523.65 3674.77 5531.52 3392.32 5488.46C3138.92 5449.8 2883 5426.16 2628.11 5401.77C2418.45 5381.66 2068.3 5260.78 1913.77 5282.55C1893.74 5267.1 1864.99 5259.97 1842.2 5249.45C1842.2 5249.04 1859.2 5239.15 1859.23 5238.42C1822.37 5221.68 1829.56 5240.4 1828.64 5260.44Z" fill="black"/>
<path d="M5160.48 5297.22C5205.76 5301.48 5203.99 5301.34 5160.48 5297.22V5297.22Z" fill="black"/>
<path d="M5153.63 5238.37C5200.92 5240.51 5186.1 5239.81 5153.63 5238.37V5238.37Z" fill="black"/>
<path d="M4479.09 5032.46C3808.26 4851.34 3018.06 4792.46 2336.22 4940.52C2204.79 4969.06 1847.96 5022.79 1808.17 5212.63C1764.63 5420.38 1912.11 5273.68 1981.95 5208.95L1947.88 5223.63C2193 5187.03 2417.68 5080.38 2673.53 5059.94C2930.91 5039.3 3189.59 5043.46 3447.52 5043.46C3705.07 5043.46 3962.25 5056.99 4219.66 5063.14C4281.36 5064.64 4529.34 5119.33 4479.09 5032.46Z" fill="black"/>
</g>
<defs>
<clipPath id="clip0">
<rect width="7223" height="7921" fill="white"/>
</clipPath>
</defs>
</svg>
